<?xml version="1.0" encoding="UTF-8"?>
<svg width="285px" height="32px" viewBox="0 0 285 32" version="1.1" xmlns="http://www.w3.org/2000/svg" xmlns:xlink="http://www.w3.org/1999/xlink">
    <!-- Generator: Sketch 60 (88103) - https://sketch.com -->
    <title>gassless-logo</title>
    <desc>Created with Sketch.</desc>
    <defs>
        <linearGradient x1="-22.507544%" y1="191.933137%" x2="108.021026%" y2="-63.5731658%" id="linearGradient-1">
            <stop stop-color="#9A26BE" offset="0%"></stop>
            <stop stop-color="#C060CF" offset="100%"></stop>
        </linearGradient>
        <path d="M9.86988004,18.6275332 L24.9544499,31.932914 L15.063124,31.932914 L7.10542736e-14,18.6275332 L9.86988004,18.6275332 Z M32.2182151,18.6275332 L32.8768918,23.7911818 C32.9816384,24.6104897 32.3677857,25.2802236 31.5062214,25.2802236 L31.5062214,25.2802236 L19.5424633,25.2802236 L11.8742586,18.6275332 L32.2182151,18.6275332 Z M17.871927,0 L32.8228626,13.3053809 L23.3473772,13.3053809 L8.52510874,0 L17.871927,0 Z M13.9660873,6.65269043 L21.6709697,13.3053809 L0.680386606,13.3053809 L0.0121255394,8.14173221 C-0.0956585035,7.32242436 0.527093745,6.65269043 1.40373729,6.65269043 L1.40373729,6.65269043 L13.9660873,6.65269043 Z" id="path-2"></path>
        <linearGradient x1="72.8617298%" y1="27.6120642%" x2="25.3300922%" y2="76.2817641%" id="linearGradient-4">
            <stop stop-color="#FFFFFF" offset="0%"></stop>
            <stop stop-color="#FFFFFF" offset="100%"></stop>
        </linearGradient>
    </defs>
    <g id="Layout-Copy" stroke="none" stroke-width="1" fill="none" fill-rule="evenodd">
        <g id="Home-02---01-Copy-3" transform="translate(-460.000000, -24.000000)">
            <g id="Group-8" transform="translate(460.000000, 21.000000)">
                <g id="gassless-logo">
                    <g id="Group-3" fill="#F9FAFB" fill-rule="nonzero">
                        <path d="M6.2734375,25.2890625 C9.3515625,25.2890625 11.2734375,23.4140625 11.2734375,20.3984375 L11.2734375,18.9609375 L6.5390625,18.9609375 L6.5390625,20.734375 L8.984375,20.734375 L8.9765625,20.9375 C8.9296875,22.296875 7.859375,23.2109375 6.3125,23.2109375 C4.453125,23.2109375 3.28125,21.7421875 3.28125,19.328125 C3.28125,16.9609375 4.3984375,15.515625 6.21875,15.515625 C7.53125,15.515625 8.4765625,16.1796875 8.828125,17.3203125 L11.171875,17.3203125 C10.84375,14.9765625 8.8828125,13.4375 6.21875,13.4375 C2.9375,13.4375 0.8671875,15.71875 0.8671875,19.3515625 C0.8671875,23.0390625 2.921875,25.2890625 6.2734375,25.2890625 Z M15.6640625,25.1328125 C16.78125,25.1328125 17.71875,24.6640625 18.1640625,23.875 L18.3046875,23.875 L18.3046875,25 L20.5078125,25 L20.5078125,19.1171875 C20.5078125,17.2734375 19.21875,16.1953125 16.9375,16.1953125 C14.7734375,16.1953125 13.3125,17.1953125 13.1640625,18.7890625 L15.2578125,18.7890625 C15.4453125,18.2734375 15.9921875,17.9921875 16.8125,17.9921875 C17.75,17.9921875 18.265625,18.3984375 18.265625,19.1171875 L18.265625,19.8203125 L16.1796875,19.9453125 C14.0390625,20.0703125 12.84375,20.9765625 12.84375,22.5390625 C12.84375,24.1171875 14.0078125,25.1328125 15.6640625,25.1328125 Z M16.4140625,23.421875 C15.625,23.421875 15.0703125,23.03125 15.0703125,22.390625 C15.0703125,21.7734375 15.546875,21.421875 16.5234375,21.3515625 L18.265625,21.2421875 L18.265625,21.875 C18.265625,22.75 17.46875,23.421875 16.4140625,23.421875 Z M26.140625,25.1875 C28.3984375,25.1875 29.9375,24.0625 29.9375,22.34375 C29.9375,21.0546875 29.1875,20.3515625 27.515625,19.984375 L25.8984375,19.6328125 C25.1015625,19.453125 24.734375,19.1953125 24.734375,18.7734375 C24.734375,18.2265625 25.3359375,17.859375 26.1484375,17.859375 C26.9921875,17.859375 27.515625,18.203125 27.6328125,18.7578125 L29.734375,18.7578125 C29.609375,17.109375 28.3203125,16.1953125 26.1328125,16.1953125 C23.984375,16.1953125 22.546875,17.28125 22.546875,18.9140625 C22.546875,20.2421875 23.359375,21.0390625 25.03125,21.40625 L26.59375,21.7578125 C27.3515625,21.921875 27.6796875,22.1796875 27.6796875,22.6015625 C27.6796875,23.15625 27.0703125,23.5234375 26.1875,23.5234375 C25.28125,23.5234375 24.7265625,23.1875 24.5546875,22.6015625 L22.3359375,22.6015625 C22.4921875,24.2578125 23.8671875,25.1875 26.140625,25.1875 Z M34.15625,25 L34.15625,13.09375 L31.8828125,13.09375 L31.8828125,25 L34.15625,25 Z M40.265625,25.1875 C42.375,25.1875 43.8671875,24.1640625 44.203125,22.546875 L42.0859375,22.546875 C41.84375,23.1171875 41.2265625,23.4375 40.328125,23.4375 C39.140625,23.4375 38.390625,22.640625 38.359375,21.359375 L38.359375,21.2421875 L44.2734375,21.2421875 L44.2734375,20.546875 C44.2734375,17.8125 42.7734375,16.1953125 40.234375,16.1953125 C37.671875,16.1953125 36.09375,17.9296875 36.09375,20.734375 C36.09375,23.53125 37.640625,25.1875 40.265625,25.1875 Z M42.0390625,19.7890625 L38.3671875,19.7890625 C38.4453125,18.671875 39.1875,17.9375 40.2421875,17.9375 C41.3046875,17.9375 41.9921875,18.6484375 42.0390625,19.7890625 Z M49.53125,25.1875 C51.7890625,25.1875 53.328125,24.0625 53.328125,22.34375 C53.328125,21.0546875 52.578125,20.3515625 50.90625,19.984375 L49.2890625,19.6328125 C48.4921875,19.453125 48.125,19.1953125 48.125,18.7734375 C48.125,18.2265625 48.7265625,17.859375 49.5390625,17.859375 C50.3828125,17.859375 50.90625,18.203125 51.0234375,18.7578125 L53.125,18.7578125 C53,17.109375 51.7109375,16.1953125 49.5234375,16.1953125 C47.375,16.1953125 45.9375,17.28125 45.9375,18.9140625 C45.9375,20.2421875 46.75,21.0390625 48.421875,21.40625 L49.984375,21.7578125 C50.7421875,21.921875 51.0703125,22.1796875 51.0703125,22.6015625 C51.0703125,23.15625 50.4609375,23.5234375 49.578125,23.5234375 C48.671875,23.5234375 48.1171875,23.1875 47.9453125,22.6015625 L45.7265625,22.6015625 C45.8828125,24.2578125 47.2578125,25.1875 49.53125,25.1875 Z M58.59375,25.1875 C60.8515625,25.1875 62.390625,24.0625 62.390625,22.34375 C62.390625,21.0546875 61.640625,20.3515625 59.96875,19.984375 L58.3515625,19.6328125 C57.5546875,19.453125 57.1875,19.1953125 57.1875,18.7734375 C57.1875,18.2265625 57.7890625,17.859375 58.6015625,17.859375 C59.4453125,17.859375 59.96875,18.203125 60.0859375,18.7578125 L62.1875,18.7578125 C62.0625,17.109375 60.7734375,16.1953125 58.5859375,16.1953125 C56.4375,16.1953125 55,17.28125 55,18.9140625 C55,20.2421875 55.8125,21.0390625 57.484375,21.40625 L59.046875,21.7578125 C59.8046875,21.921875 60.1328125,22.1796875 60.1328125,22.6015625 C60.1328125,23.15625 59.5234375,23.5234375 58.640625,23.5234375 C57.734375,23.5234375 57.1796875,23.1875 57.0078125,22.6015625 L54.7890625,22.6015625 C54.9453125,24.2578125 56.3203125,25.1875 58.59375,25.1875 Z" id="Gasless"></path>
                        <path d="M106.21875,25.1328125 C108.382812,25.1328125 109.710938,23.453125 109.710938,20.6875 C109.710938,17.90625 108.398438,16.2421875 106.21875,16.2421875 C105.039062,16.2421875 104.070312,16.8125 103.632812,17.7578125 L103.492188,17.7578125 L103.492188,13.09375 L101.21875,13.09375 L101.21875,25 L103.421875,25 L103.421875,23.6484375 L103.5625,23.6484375 C104.023438,24.5859375 105,25.1328125 106.21875,25.1328125 Z M105.429688,23.234375 C104.226562,23.234375 103.476562,22.2578125 103.46875,20.6953125 C103.476562,19.125 104.234375,18.1484375 105.429688,18.1484375 C106.632812,18.1484375 107.375,19.1171875 107.375,20.6875 C107.375,22.265625 106.640625,23.234375 105.429688,23.234375 Z M112.632812,28.1328125 C114.78125,28.1328125 115.835938,27.3515625 116.570312,25.1328125 L119.539062,16.3828125 L117.132812,16.3828125 L115.320312,22.9140625 L115.179688,22.9140625 L113.367188,16.3828125 L110.859375,16.3828125 L113.882812,25.0546875 L113.804688,25.3671875 C113.617188,26.0234375 113.132812,26.296875 112.28125,26.296875 L112.123264,26.2962963 C111.987847,26.2951389 111.817708,26.2916667 111.765625,26.28125 L111.765625,28.109375 C111.859375,28.125 112.546875,28.1328125 112.632812,28.1328125 Z" id="by"></path>
                        <path d="M68.0185547,19 C69.5224609,19 70.4550781,18.21875 70.4550781,16.9833984 C70.4550781,16.0751953 69.7763672,15.3720703 68.84375,15.3037109 L68.84375,15.2158203 C69.5664062,15.1083984 70.1181641,14.4589844 70.1181641,13.7119141 C70.1181641,12.6230469 69.3027344,11.9541016 67.9355469,11.9541016 L64.8544922,11.9541016 L64.8544922,19 L68.0185547,19 Z M67.4375,14.8740234 L66.3291016,14.8740234 L66.3291016,13.0820312 L67.5595703,13.0820312 C68.2626953,13.0820312 68.6679688,13.4189453 68.6679688,13.9804688 C68.6679688,14.546875 68.2333984,14.8740234 67.4375,14.8740234 Z M67.6425781,17.8720703 L66.3291016,17.8720703 L66.3291016,15.8701172 L67.6083984,15.8701172 C68.4775391,15.8701172 68.9511719,16.2119141 68.9511719,16.8564453 C68.9511719,17.515625 68.4921875,17.8720703 67.6425781,17.8720703 Z M76.4560547,19 L76.4560547,17.7402344 L73.2626953,17.7402344 L73.2626953,16.0263672 L76.2753906,16.0263672 L76.2753906,14.859375 L73.2626953,14.859375 L73.2626953,13.2138672 L76.4560547,13.2138672 L76.4560547,11.9541016 L71.7880859,11.9541016 L71.7880859,19 L76.4560547,19 Z M81.1923828,19 L81.1923828,13.2138672 L83.3066406,13.2138672 L83.3066406,11.9541016 L77.6035156,11.9541016 L77.6035156,13.2138672 L79.7177734,13.2138672 L79.7177734,19 L81.1923828,19 Z M85.5869141,19 L86.1289062,17.3203125 L88.6044922,17.3203125 L89.1367188,19 L90.7333984,19 L88.2871094,11.9541016 L86.5537109,11.9541016 L84.1074219,19 L85.5869141,19 Z M88.2919922,16.1826172 L86.4462891,16.1826172 L87.3300781,13.4189453 L87.4179688,13.4189453 L88.2919922,16.1826172 Z" id="BETA"></path>
                    </g>
                    <g id="mosendo_wordmark_white" transform="translate(126.000000, 3.000000)">
                        <g id="mosendo_logo" transform="translate(0.500000, 0.000000)">
                            <mask id="mask-3" fill="white">
                                <use xlink:href="#path-2"></use>
                            </mask>
                            <use id="Mask" fill="url(#linearGradient-1)" fill-rule="nonzero" xlink:href="#path-2"></use>
                            <rect id="Rectangle" fill="url(#linearGradient-4)" mask="url(#mask-3)" x="-3.04468169" y="-4.0698812" width="38.9719257" height="40.0726765"></rect>
                        </g>
                        <path d="M53.9115983,24.5488827 L53.9115983,17.5432961 C53.9115983,15.8184358 55.0424328,14.3058659 56.8628006,14.3058659 C58.6831683,14.3058659 59.4278642,15.7653631 59.4278642,17.4902235 L59.4278642,24.5488827 L62.7927864,24.5488827 L62.7927864,17.4902235 C62.7927864,13.5628492 60.8896747,11.2807263 57.0282885,11.2807263 C55.2630835,11.2807263 53.6909477,11.8114525 52.4773692,13.6689944 C51.7050919,11.8645251 50.0777935,11.2276536 48.450495,11.2276536 C47.1541726,11.2276536 45.5820368,11.7053073 44.8649222,13.0321229 L44.6166902,11.4399441 L41.5,11.4399441 L41.5,24.5488827 L44.8649222,24.5488827 L44.8649222,17.5432961 C44.8649222,15.8184358 45.9405941,14.2527933 47.7609618,14.2527933 C49.6089109,14.2527933 50.5466761,15.8184358 50.5466761,17.5432961 L50.5466761,24.5488827 L53.9115983,24.5488827 Z M72.6117397,11.2011173 C68.281471,11.2011173 65.5785007,14.2793296 65.5785007,18.0209497 C65.5785007,21.7891061 68.2263083,24.8407821 72.6393211,24.8407821 C77.0523338,24.8407821 79.7277228,21.7891061 79.7277228,18.0209497 C79.7277228,14.2793296 76.9420085,11.2011173 72.6117397,11.2011173 Z M72.6393211,14.146648 C74.9009901,14.146648 76.3352192,16.0572626 76.3352192,18.0209497 C76.3352192,20.0111732 75.0940594,21.8687151 72.6393211,21.8687151 C70.1845827,21.8687151 68.9434229,20.0111732 68.9434229,18.0209497 C68.9434229,16.0572626 70.2121641,14.146648 72.6393211,14.146648 Z M92.801273,12.8198324 C91.2291372,11.4930168 89.6294201,11.0949721 87.5056577,11.0949721 C85.023338,11.0949721 81.7687412,12.1564246 81.7687412,15.1815642 C81.7687412,18.1536313 84.8302687,19.0558659 87.3953324,19.2416201 L87.5144958,19.2486021 C89.3578685,19.3634752 90.0983027,19.7380703 90.0983027,20.6215084 C90.0983027,21.5768156 88.9123055,22.2136872 87.6435644,22.1871508 C86.1265912,22.1606145 83.9200849,21.3910615 82.9547383,20.3561453 L81.2998586,22.6648045 C83.2857143,24.6550279 85.437058,25 87.5884017,25 C91.4773692,25 93.4356436,23.0097765 93.4356436,20.7011173 C93.4356436,17.2943855 90.3099287,16.6910559 87.7706827,16.5184308 L87.615983,16.5083799 C85.8783593,16.4022346 85.0785007,15.924581 85.0785007,15.075419 C85.0785007,14.2527933 85.9611033,13.7751397 87.5608204,13.7751397 C88.8571429,13.7751397 89.960396,14.0670391 90.9257426,14.9427374 L92.801273,12.8198324 Z M109.074257,19.1620112 C109.598303,13.7751397 106.757426,11.0684358 102.206506,11.0684358 C97.7934936,11.0684358 94.980198,13.9343575 94.980198,17.9148045 C94.980198,22.1075419 97.7659123,24.8938547 102.454738,24.8938547 C104.523338,24.8938547 106.867751,24.2039106 108.30198,22.7709497 L106.150636,20.7276536 C105.378359,21.4972067 103.751061,21.948324 102.509901,21.948324 C100.137907,21.948324 98.6760962,20.7807263 98.4554455,19.1620112 L109.074257,19.1620112 Z M98.5106082,16.4818436 C99.0070721,14.7835196 100.496464,13.9343575 102.316832,13.9343575 C104.247525,13.9343575 105.626591,14.7835196 105.847242,16.4818436 L98.5106082,16.4818436 Z M125.043847,24.5488827 L125.043847,17.6759777 C125.043847,13.5628492 122.478784,11.2541899 119.279349,11.2541899 C117.569307,11.2541899 116.19024,11.9175978 114.811174,13.2178771 L114.590523,11.4399441 L111.584158,11.4399441 L111.584158,24.5488827 L114.921499,24.5488827 L114.921499,17.8617318 C114.921499,15.8715084 116.328147,14.1997207 118.396747,14.1997207 C120.548091,14.1997207 121.678925,15.7122905 121.678925,17.702514 L121.678925,24.5488827 L125.043847,24.5488827 Z M134.531825,14.1731844 C136.655587,14.1731844 138.475955,15.7122905 138.475955,17.9944134 C138.475955,20.3561453 136.655587,21.8421788 134.531825,21.8421788 C132.380481,21.8421788 130.670438,20.2765363 130.670438,17.9944134 C130.670438,15.6326816 132.380481,14.1731844 134.531825,14.1731844 Z M138.696605,6 L138.696605,13.2444134 C137.896747,11.8910615 135.662659,11.1480447 134.22843,11.1480447 C130.256719,11.1480447 127.305516,13.4832402 127.305516,17.9944134 C127.305516,22.2932961 130.311881,24.8407821 134.311174,24.8407821 C135.966054,24.8407821 137.648515,24.3100559 138.696605,22.7444134 L138.917256,24.5488827 L142.061528,24.5488827 L142.061528,6 L138.696605,6 Z M151.384017,11.2011173 C147.053748,11.2011173 144.350778,14.2793296 144.350778,18.0209497 C144.350778,21.7891061 146.998586,24.8407821 151.411598,24.8407821 C155.824611,24.8407821 158.5,21.7891061 158.5,18.0209497 C158.5,14.2793296 155.714286,11.2011173 151.384017,11.2011173 Z M151.411598,14.146648 C153.673267,14.146648 155.107496,16.0572626 155.107496,18.0209497 C155.107496,20.0111732 153.866337,21.8687151 151.411598,21.8687151 C148.95686,21.8687151 147.7157,20.0111732 147.7157,18.0209497 C147.7157,16.0572626 148.984441,14.146648 151.411598,14.146648 Z" id="mosendo" fill="#FFFFFF" fill-rule="nonzero"></path>
                    </g>
                </g>
            </g>
        </g>
    </g>
</svg>