<?xml version="1.0" encoding="UTF-8"?>
<svg width="135px" height="44px" viewBox="0 0 135 44" version="1.1" xmlns="http://www.w3.org/2000/svg" xmlns:xlink="http://www.w3.org/1999/xlink">
    <!-- Generator: Sketch 60.1 (88133) - https://sketch.com -->
    <title>gasless-logo</title>
    <desc>Created with Sketch.</desc>
    <defs>
        <linearGradient x1="-22.507544%" y1="181.61721%" x2="108.021026%" y2="-55.3184868%" id="linearGradient-1">
            <stop stop-color="#9A26BE" offset="0%"></stop>
            <stop stop-color="#C060CF" offset="100%"></stop>
        </linearGradient>
        <path d="M4.90122787,8.90764305 L12.3919891,15.2702452 L7.4801115,15.2702452 L7.10542736e-14,8.90764305 L4.90122787,8.90764305 Z M15.9990611,8.90764305 L16.3261496,11.3768878 C16.3781651,11.7686789 16.0733355,12.0889441 15.6454962,12.0889441 L15.6454962,12.0889441 L9.70448124,12.0889441 L5.89657088,8.90764305 L15.9990611,8.90764305 Z M8.87491908,0 L16.2993196,6.36260218 L11.5939419,6.36260218 L4.2334355,0 L8.87491908,0 Z M6.93534023,3.18130109 L10.7614642,6.36260218 L0.337869334,6.36260218 L0.006021353,3.89335741 C-0.0475025149,3.5015663 0.2617465,3.18130109 0.697073958,3.18130109 L0.697073958,3.18130109 L6.93534023,3.18130109 Z" id="path-2"></path>
        <linearGradient x1="74.171414%" y1="28.0499304%" x2="23.9168226%" y2="75.7677419%" id="linearGradient-4">
            <stop stop-color="#FFFFFF" offset="0%"></stop>
            <stop stop-color="#FFFFFF" offset="100%"></stop>
        </linearGradient>
    </defs>
    <g id="Layout-Copy" stroke="none" stroke-width="1" fill="none" fill-rule="evenodd">
        <g id="Testing-03-A" transform="translate(-460.000000, -52.000000)">
            <g id="Top-Bar" transform="translate(460.000000, 52.000000)">
                <g id="Group-4">
                    <g id="gasless-logo">
                        <path d="M7.95,30.24 C12.24,30.24 15.36,27.72 15.36,23.64 C15.36,21.75 14.76,19.98 12.3,18.75 C14.73,17.64 15.42,15.06 15.42,13.23 C15.42,11.61 15,10.14 13.86,8.85 L15.51,6.75 L12.81,4.71 L11.34,6.57 C10.32,5.88 9.12,5.73 7.95,5.73 C3.81,5.73 0.45,8.61 0.45,13.23 C0.45,17.85 3.33,20.67 7.95,20.67 C9.78,20.67 11.7,21.6 11.7,23.64 C11.7,25.68 10.05,26.82 7.95,26.82 C5.85,26.82 4.08,25.56 4.08,23.64 L0.45,23.64 C0.45,27.63 3.66,30.24 7.95,30.24 Z M7.95,17.34 C5.82,17.34 4.08,15.81 4.08,13.23 C4.08,10.65 5.82,9.06 7.95,9.06 C10.05,9.06 11.79,10.68 11.79,13.23 C11.79,15.78 10.05,17.34 7.95,17.34 Z M25.77,21.45 C27.42,21.42 29.73,20.58 30.57,18.84 L30.75,21 L34.2,21 L34.2,6.21 L30.69,6.21 L30.57,8.25 C29.73,6.78 27.84,5.85 25.86,5.85 C21.54,5.82 18.15,8.49 18.15,13.59 C18.15,18.78 21.39,21.48 25.77,21.45 Z M26.19,18.09 C23.76,18.09 21.81,16.41 21.81,13.59 C21.81,10.77 23.76,9.12 26.19,9.12 C31.95,9.12 31.95,18.09 26.19,18.09 Z M44.52,21.51 C48.75,21.51 50.88,19.26 50.88,16.65 C50.88,12.72 47.34,12.09 44.55,11.91 C42.66,11.79 41.79,11.25 41.79,10.29 C41.79,9.36 42.75,8.82 44.49,8.82 C45.9,8.82 47.1,9.15 48.15,10.14 L50.19,7.74 C48.48,6.24 46.74,5.79 44.43,5.79 C41.73,5.79 38.19,6.99 38.19,10.41 C38.19,13.77 41.52,14.79 44.31,15 C46.41,15.12 47.25,15.54 47.25,16.56 C47.25,17.64 45.96,18.36 44.58,18.33 C42.93,18.3 40.53,17.43 39.48,16.26 L37.68,18.87 C39.84,21.12 42.18,21.51 44.52,21.51 Z M58.05,21 L58.05,0.03 L54.42,0.03 L54.42,21 L58.05,21 Z M69.93,21.39 C72.18,21.39 74.73,20.61 76.29,18.99 L73.95,16.68 C73.11,17.55 71.34,18.06 69.99,18.06 C67.41,18.06 65.82,16.74 65.58,14.91 L77.13,14.91 C77.7,8.82 74.61,5.76 69.66,5.76 C64.86,5.76 61.8,9 61.8,13.5 C61.8,18.24 64.83,21.39 69.93,21.39 Z M73.62,11.88 L65.64,11.88 C66.18,9.96 67.8,9 69.78,9 C71.88,9 73.38,9.96 73.62,11.88 Z M87.18,21.51 C91.41,21.51 93.54,19.26 93.54,16.65 C93.54,12.72 90,12.09 87.21,11.91 C85.32,11.79 84.45,11.25 84.45,10.29 C84.45,9.36 85.41,8.82 87.15,8.82 C88.56,8.82 89.76,9.15 90.81,10.14 L92.85,7.74 C91.14,6.24 89.4,5.79 87.09,5.79 C84.39,5.79 80.85,6.99 80.85,10.41 C80.85,13.77 84.18,14.79 86.97,15 C89.07,15.12 89.91,15.54 89.91,16.56 C89.91,17.64 88.62,18.36 87.24,18.33 C85.59,18.3 83.19,17.43 82.14,16.26 L80.34,18.87 C82.5,21.12 84.84,21.51 87.18,21.51 Z M103.11,21.51 C107.34,21.51 109.47,19.26 109.47,16.65 C109.47,12.72 105.93,12.09 103.14,11.91 C101.25,11.79 100.38,11.25 100.38,10.29 C100.38,9.36 101.34,8.82 103.08,8.82 C104.49,8.82 105.69,9.15 106.74,10.14 L108.78,7.74 C107.07,6.24 105.33,5.79 103.02,5.79 C100.32,5.79 96.78,6.99 96.78,10.41 C96.78,13.77 100.11,14.79 102.9,15 C105,15.12 105.84,15.54 105.84,16.56 C105.84,17.64 104.55,18.36 103.17,18.33 C101.52,18.3 99.12,17.43 98.07,16.26 L96.27,18.87 C98.43,21.12 100.77,21.51 103.11,21.51 Z" id="gasless" fill="#F9FAFB" fill-rule="nonzero"></path>
                        <g id="Group-12" transform="translate(41.213873, 28.000000)">
                            <path d="M3.47762717,12.1265 C5.14512717,12.1265 6.39862717,11.0225 6.39862717,9.1595 C6.39862717,7.2045 5.16812717,6.1925 3.51212717,6.1925 C2.91412717,6.1925 1.98262717,6.5145 1.64912717,7.101 L1.64912717,3.9615 L0.246127168,3.9615 L0.246127168,12 L1.55712717,12 L1.64912717,11.218 C2.08612717,11.8965 2.78762717,12.1265 3.47762717,12.1265 Z M3.38562717,10.827 C2.50012717,10.827 1.74112717,10.183 1.74112717,9.1595 C1.74112717,8.1705 2.50012717,7.5035 3.38562717,7.5035 C4.28262717,7.5035 4.99562717,8.136 4.99562717,9.1595 C4.99562717,10.1485 4.28262717,10.827 3.38562717,10.827 Z M9.8294605,14.369 L13.2909605,6.3305 L11.7384605,6.3305 L10.7034605,8.8145 L10.1169605,10.3785 L9.5764605,8.78 L8.7139605,6.3305 L7.0809605,6.3305 L9.3464605,11.908 L8.2884605,14.369 L9.8294605,14.369 Z" id="by" fill="#F9FAFB" fill-rule="nonzero"></path>
                            <g id="mosendo_wordmark_white" transform="translate(16.786127, 0.000000)">
                                <g id="mosendo_logo">
                                    <mask id="mask-3" fill="white">
                                        <use xlink:href="#path-2"></use>
                                    </mask>
                                    <use id="Mask" fill="url(#linearGradient-1)" fill-rule="nonzero" xlink:href="#path-2"></use>
                                    <rect id="Rectangle" fill="url(#linearGradient-4)" mask="url(#mask-3)" x="-1.51194125" y="-1.94620773" width="19.352848" height="19.1626607"></rect>
                                </g>
                                <path d="M25.6911807,11.8156425 L25.6911807,8.59152917 C25.6911807,7.79771339 26.2402564,7.10159803 27.1241344,7.10159803 C28.0080124,7.10159803 28.3695988,7.77328829 28.3695988,8.56710407 L28.3695988,11.8156425 L30.0034339,11.8156425 L30.0034339,8.56710407 C30.0034339,6.75964662 29.0793796,5.70936729 27.2044869,5.70936729 C26.3473931,5.70936729 25.584044,5.95361829 24.994792,6.80849682 C24.6198134,5.97804339 23.8296801,5.68494219 23.0395467,5.68494219 C22.4101185,5.68494219 21.6467693,5.90476809 21.2985749,6.51539561 L21.1780461,5.78264259 L19.6647399,5.78264259 L19.6647399,11.8156425 L21.2985749,11.8156425 L21.2985749,8.59152917 C21.2985749,7.79771339 21.8208665,7.07717292 22.7047445,7.07717292 C23.6020145,7.07717292 24.0573456,7.79771339 24.0573456,8.59152917 L24.0573456,11.8156425 L25.6911807,11.8156425 Z M34.7710181,5.67272963 C32.6684599,5.67272963 31.356035,7.08938547 31.356035,8.81135507 C31.356035,10.5455372 32.6416757,11.9499805 34.7844102,11.9499805 C36.9271447,11.9499805 38.2261775,10.5455372 38.2261775,8.81135507 C38.2261775,7.08938547 36.8735764,5.67272963 34.7710181,5.67272963 Z M34.7844102,7.02832272 C35.8825617,7.02832272 36.5789504,7.90762635 36.5789504,8.81135507 C36.5789504,9.72729635 35.9763063,10.5821749 34.7844102,10.5821749 C33.5925142,10.5821749 32.9898701,9.72729635 32.9898701,8.81135507 C32.9898701,7.90762635 33.6059063,7.02832272 34.7844102,7.02832272 Z M44.5740285,6.41769521 C43.8106793,5.80706769 43.0339381,5.62387943 42.0027471,5.62387943 C40.7974589,5.62387943 39.2171922,6.11238145 39.2171922,7.50461219 C39.2171922,8.87241783 40.7037143,9.28764454 41.9491787,9.37313239 L42.0070384,9.37634565 C42.9020864,9.42921259 43.2616036,9.60160885 43.2616036,10.008185 C43.2616036,10.4478368 42.6857437,10.740938 42.0697075,10.7287255 C41.3331426,10.7165129 40.2617753,10.362349 39.7930521,9.8860595 L38.9895267,10.9485514 C39.9537572,11.8644927 40.9983403,12.0232558 42.0429234,12.0232558 C43.9312081,12.0232558 44.8820466,11.1073145 44.8820466,10.0448227 C44.8820466,8.47697544 43.3643585,8.1993109 42.1314298,8.11986533 L42.0563155,8.1152397 C41.2126137,8.0663895 40.8242431,7.8465636 40.8242431,7.45576199 C40.8242431,7.07717292 41.25279,6.85734702 42.0295313,6.85734702 C42.6589595,6.85734702 43.1946432,6.99168507 43.6633663,7.39469923 L44.5740285,6.41769521 Z M52.475362,9.33649474 C52.7298117,6.85734702 51.3504264,5.61166688 49.1407314,5.61166688 C46.9979969,5.61166688 45.6320037,6.93062232 45.6320037,8.76250487 C45.6320037,10.6920878 46.9846048,11.9744056 49.2612602,11.9744056 C50.265667,11.9744056 51.4039947,11.6568793 52.1003834,10.9974016 L51.0558004,10.0570352 C50.6808218,10.4111992 49.8906885,10.6188125 49.2880444,10.6188125 C48.1363246,10.6188125 47.4265438,10.0814603 47.3194071,9.33649474 L52.475362,9.33649474 Z M47.3461913,8.10302715 C47.5872489,7.32142393 48.3104218,6.93062232 49.1942998,6.93062232 C50.1317461,6.93062232 50.8013507,7.32142393 50.9084874,8.10302715 L47.3461913,8.10302715 Z M60.2293825,11.8156425 L60.2293825,8.65259192 C60.2293825,6.75964662 58.983918,5.69715474 57.4304355,5.69715474 C56.6001259,5.69715474 55.9305214,6.00246849 55.2609168,6.60088346 L55.1537801,5.78264259 L53.6940422,5.78264259 L53.6940422,11.8156425 L55.3144852,11.8156425 L55.3144852,8.73807977 C55.3144852,7.8221385 55.9974818,7.05274782 57.0018886,7.05274782 C58.0464717,7.05274782 58.5955474,7.74886319 58.5955474,8.66480447 L58.5955474,11.8156425 L60.2293825,11.8156425 Z M64.8362617,7.04053527 C65.8674526,7.04053527 66.7513306,7.74886319 66.7513306,8.79914252 C66.7513306,9.8860595 65.8674526,10.5699623 64.8362617,10.5699623 C63.7916786,10.5699623 62.961369,9.84942185 62.961369,8.79914252 C62.961369,7.71222554 63.7916786,7.04053527 64.8362617,7.04053527 Z M66.8584673,3.27906977 L66.8584673,6.61309601 C66.4700967,5.99025594 65.3853374,5.64830453 64.6889487,5.64830453 C62.7604876,5.64830453 61.3275339,6.72300896 61.3275339,8.79914252 C61.3275339,10.7775757 62.7872718,11.9499805 64.7291249,11.9499805 C65.5326504,11.9499805 66.3495679,11.7057295 66.8584673,10.985189 L66.9656041,11.8156425 L68.4923024,11.8156425 L68.4923024,3.27906977 L66.8584673,3.27906977 Z M73.0188291,5.67272963 C70.9162708,5.67272963 69.6038459,7.08938547 69.6038459,8.81135507 C69.6038459,10.5455372 70.8894866,11.9499805 73.0322211,11.9499805 C75.1749556,11.9499805 76.4739884,10.5455372 76.4739884,8.81135507 C76.4739884,7.08938547 75.1213873,5.67272963 73.0188291,5.67272963 Z M73.0322211,7.02832272 C74.1303726,7.02832272 74.8267613,7.90762635 74.8267613,8.81135507 C74.8267613,9.72729635 74.2241172,10.5821749 73.0322211,10.5821749 C71.8403251,10.5821749 71.237681,9.72729635 71.237681,8.81135507 C71.237681,7.90762635 71.8537172,7.02832272 73.0322211,7.02832272 Z" id="mosendo" fill="#FFFFFF" fill-rule="nonzero"></path>
                            </g>
                        </g>
                    </g>
                </g>
            </g>
        </g>
    </g>
</svg>