<?xml version="1.0" encoding="UTF-8"?>
<svg width="159px" height="32px" viewBox="0 0 159 32" version="1.1" xmlns="http://www.w3.org/2000/svg" xmlns:xlink="http://www.w3.org/1999/xlink">
    <!-- Generator: Sketch 60 (88103) - https://sketch.com -->
    <title>mosendo_wordmark_white</title>
    <desc>Created with Sketch.</desc>
    <defs>
        <linearGradient x1="-22.507544%" y1="191.933137%" x2="108.021026%" y2="-63.5731658%" id="linearGradient-1">
            <stop stop-color="#9A26BE" offset="0%"></stop>
            <stop stop-color="#C060CF" offset="100%"></stop>
        </linearGradient>
        <path d="M9.86988004,18.6275332 L24.9544499,31.932914 L15.063124,31.932914 L7.10542736e-14,18.6275332 L9.86988004,18.6275332 Z M32.2182151,18.6275332 L32.8768918,23.7911818 C32.9816384,24.6104897 32.3677857,25.2802236 31.5062214,25.2802236 L31.5062214,25.2802236 L19.5424633,25.2802236 L11.8742586,18.6275332 L32.2182151,18.6275332 Z M17.871927,0 L32.8228626,13.3053809 L23.3473772,13.3053809 L8.52510874,0 L17.871927,0 Z M13.9660873,6.65269043 L21.6709697,13.3053809 L0.680386606,13.3053809 L0.0121255394,8.14173221 C-0.0956585035,7.32242436 0.527093745,6.65269043 1.40373729,6.65269043 L1.40373729,6.65269043 L13.9660873,6.65269043 Z" id="path-2"></path>
        <linearGradient x1="72.8617298%" y1="27.6120642%" x2="25.3300922%" y2="76.2817641%" id="linearGradient-4">
            <stop stop-color="#FFFFFF" offset="0%"></stop>
            <stop stop-color="#FFFFFF" offset="100%"></stop>
        </linearGradient>
    </defs>
    <g id="Layout-Copy" stroke="none" stroke-width="1" fill="none" fill-rule="evenodd">
        <g id="Home-02---01-Copy-3" transform="translate(-554.000000, -24.000000)">
            <g id="Group-8" transform="translate(460.000000, 24.000000)">
                <g id="Group-4">
                    <g id="mosendo_wordmark_white" transform="translate(94.000000, 0.000000)">
                        <g id="mosendo_logo" transform="translate(0.500000, 0.000000)">
                            <mask id="mask-3" fill="white">
                                <use xlink:href="#path-2"></use>
                            </mask>
                            <use id="Mask" fill="url(#linearGradient-1)" fill-rule="nonzero" xlink:href="#path-2"></use>
                            <rect id="Rectangle" fill="url(#linearGradient-4)" mask="url(#mask-3)" x="-3.04468169" y="-4.0698812" width="38.9719257" height="40.0726765"></rect>
                        </g>
                        <path d="M53.9115983,24.5488827 L53.9115983,17.5432961 C53.9115983,15.8184358 55.0424328,14.3058659 56.8628006,14.3058659 C58.6831683,14.3058659 59.4278642,15.7653631 59.4278642,17.4902235 L59.4278642,24.5488827 L62.7927864,24.5488827 L62.7927864,17.4902235 C62.7927864,13.5628492 60.8896747,11.2807263 57.0282885,11.2807263 C55.2630835,11.2807263 53.6909477,11.8114525 52.4773692,13.6689944 C51.7050919,11.8645251 50.0777935,11.2276536 48.450495,11.2276536 C47.1541726,11.2276536 45.5820368,11.7053073 44.8649222,13.0321229 L44.6166902,11.4399441 L41.5,11.4399441 L41.5,24.5488827 L44.8649222,24.5488827 L44.8649222,17.5432961 C44.8649222,15.8184358 45.9405941,14.2527933 47.7609618,14.2527933 C49.6089109,14.2527933 50.5466761,15.8184358 50.5466761,17.5432961 L50.5466761,24.5488827 L53.9115983,24.5488827 Z M72.6117397,11.2011173 C68.281471,11.2011173 65.5785007,14.2793296 65.5785007,18.0209497 C65.5785007,21.7891061 68.2263083,24.8407821 72.6393211,24.8407821 C77.0523338,24.8407821 79.7277228,21.7891061 79.7277228,18.0209497 C79.7277228,14.2793296 76.9420085,11.2011173 72.6117397,11.2011173 Z M72.6393211,14.146648 C74.9009901,14.146648 76.3352192,16.0572626 76.3352192,18.0209497 C76.3352192,20.0111732 75.0940594,21.8687151 72.6393211,21.8687151 C70.1845827,21.8687151 68.9434229,20.0111732 68.9434229,18.0209497 C68.9434229,16.0572626 70.2121641,14.146648 72.6393211,14.146648 Z M92.801273,12.8198324 C91.2291372,11.4930168 89.6294201,11.0949721 87.5056577,11.0949721 C85.023338,11.0949721 81.7687412,12.1564246 81.7687412,15.1815642 C81.7687412,18.1536313 84.8302687,19.0558659 87.3953324,19.2416201 L87.5144958,19.2486021 C89.3578685,19.3634752 90.0983027,19.7380703 90.0983027,20.6215084 C90.0983027,21.5768156 88.9123055,22.2136872 87.6435644,22.1871508 C86.1265912,22.1606145 83.9200849,21.3910615 82.9547383,20.3561453 L81.2998586,22.6648045 C83.2857143,24.6550279 85.437058,25 87.5884017,25 C91.4773692,25 93.4356436,23.0097765 93.4356436,20.7011173 C93.4356436,17.2943855 90.3099287,16.6910559 87.7706827,16.5184308 L87.615983,16.5083799 C85.8783593,16.4022346 85.0785007,15.924581 85.0785007,15.075419 C85.0785007,14.2527933 85.9611033,13.7751397 87.5608204,13.7751397 C88.8571429,13.7751397 89.960396,14.0670391 90.9257426,14.9427374 L92.801273,12.8198324 Z M109.074257,19.1620112 C109.598303,13.7751397 106.757426,11.0684358 102.206506,11.0684358 C97.7934936,11.0684358 94.980198,13.9343575 94.980198,17.9148045 C94.980198,22.1075419 97.7659123,24.8938547 102.454738,24.8938547 C104.523338,24.8938547 106.867751,24.2039106 108.30198,22.7709497 L106.150636,20.7276536 C105.378359,21.4972067 103.751061,21.948324 102.509901,21.948324 C100.137907,21.948324 98.6760962,20.7807263 98.4554455,19.1620112 L109.074257,19.1620112 Z M98.5106082,16.4818436 C99.0070721,14.7835196 100.496464,13.9343575 102.316832,13.9343575 C104.247525,13.9343575 105.626591,14.7835196 105.847242,16.4818436 L98.5106082,16.4818436 Z M125.043847,24.5488827 L125.043847,17.6759777 C125.043847,13.5628492 122.478784,11.2541899 119.279349,11.2541899 C117.569307,11.2541899 116.19024,11.9175978 114.811174,13.2178771 L114.590523,11.4399441 L111.584158,11.4399441 L111.584158,24.5488827 L114.921499,24.5488827 L114.921499,17.8617318 C114.921499,15.8715084 116.328147,14.1997207 118.396747,14.1997207 C120.548091,14.1997207 121.678925,15.7122905 121.678925,17.702514 L121.678925,24.5488827 L125.043847,24.5488827 Z M134.531825,14.1731844 C136.655587,14.1731844 138.475955,15.7122905 138.475955,17.9944134 C138.475955,20.3561453 136.655587,21.8421788 134.531825,21.8421788 C132.380481,21.8421788 130.670438,20.2765363 130.670438,17.9944134 C130.670438,15.6326816 132.380481,14.1731844 134.531825,14.1731844 Z M138.696605,6 L138.696605,13.2444134 C137.896747,11.8910615 135.662659,11.1480447 134.22843,11.1480447 C130.256719,11.1480447 127.305516,13.4832402 127.305516,17.9944134 C127.305516,22.2932961 130.311881,24.8407821 134.311174,24.8407821 C135.966054,24.8407821 137.648515,24.3100559 138.696605,22.7444134 L138.917256,24.5488827 L142.061528,24.5488827 L142.061528,6 L138.696605,6 Z M151.384017,11.2011173 C147.053748,11.2011173 144.350778,14.2793296 144.350778,18.0209497 C144.350778,21.7891061 146.998586,24.8407821 151.411598,24.8407821 C155.824611,24.8407821 158.5,21.7891061 158.5,18.0209497 C158.5,14.2793296 155.714286,11.2011173 151.384017,11.2011173 Z M151.411598,14.146648 C153.673267,14.146648 155.107496,16.0572626 155.107496,18.0209497 C155.107496,20.0111732 153.866337,21.8687151 151.411598,21.8687151 C148.95686,21.8687151 147.7157,20.0111732 147.7157,18.0209497 C147.7157,16.0572626 148.984441,14.146648 151.411598,14.146648 Z" id="mosendo" fill="#FFFFFF" fill-rule="nonzero"></path>
                    </g>
                </g>
            </g>
        </g>
    </g>
</svg>