<?xml version="1.0" encoding="UTF-8"?>
<svg width="20px" height="20px" viewBox="0 0 20 20" version="1.1" xmlns="http://www.w3.org/2000/svg" xmlns:xlink="http://www.w3.org/1999/xlink">
    <!-- Generator: Sketch 60 (88103) - https://sketch.com -->
    <title>qr</title>
    <desc>Created with Sketch.</desc>
    <g id="Layout-Copy" stroke="none" stroke-width="1" fill="none" fill-rule="evenodd">
        <g id="Home-02---01-Copy-3" transform="translate(-960.000000, -29.000000)" fill="#FFFFFF" fill-rule="nonzero">
            <g id="Group-8" transform="translate(460.000000, 24.000000)">
                <g id="Group" transform="translate(432.000000, 5.000000)">
                    <g id="qr" transform="translate(68.000000, 0.000000)">
                        <path d="M7.10542736e-15,1.0658141e-14 L7.10542736e-15,5.83325 L5.8333,5.83325 L5.8333,1.0658141e-14 L7.10542736e-15,1.0658141e-14 Z M4.1667,4.16675 L1.6667,4.16675 L1.6667,1.66675 L4.1667,1.66675 L4.1667,4.16675 Z" id="Shape"></path>
                        <path d="M7.10542736e-15,14.1665 L7.10542736e-15,20 L5.8333,20 L5.8333,14.1665 L7.10542736e-15,14.1665 Z M4.1667,18.3335 L1.6667,18.3335 L1.6667,15.8335 L4.1667,15.8335 L4.1667,18.3335 Z" id="Shape"></path>
                        <path d="M14.167,1.0658141e-14 L14.167,5.83325 L20.0002,5.83325 L20.0002,1.0658141e-14 L14.167,1.0658141e-14 Z M18.3335,4.16675 L15.8335,4.16675 L15.8335,1.66675 L18.3335,1.66675 L18.3335,4.16675 Z" id="Shape"></path>
                        <polygon id="Path" points="18.3335 7.5 18.3335 12.5 14.167 12.5 14.167 14.1665 20.0002 14.1665 20.0002 7.5"></polygon>
                        <polygon id="Path" points="14.167 15.8335 14.167 20 15.8335 20 15.8335 17.5 18.3335 17.5 18.3335 20 20.0002 20 20.0002 15.8335"></polygon>
                        <polygon id="Path" points="7.5 1.0658141e-14 7.5 1.66675 10.8333 1.66675 10.8333 5.83325 12.5 5.83325 12.5 1.0658141e-14"></polygon>
                        <polygon id="Path" points="10.8333 7.5 10.8333 10.8335 7.5 10.8335 7.5 15.8335 10.8333 15.8335 10.8333 20 12.5 20 12.5 14.1665 9.1667 14.1665 9.1667 12.5 12.5 12.5 12.5 9.16675 14.1667 9.16675 14.1667 10.8335 15.8333 10.8335 15.8333 7.5"></polygon>
                        <polygon id="Path" points="9.1667 17.5 7.5 17.5 7.5 20 9.1667 20"></polygon>
                        <polygon id="Path" points="5.833 10.8335 3.333 10.8335 3.333 12.5 5.833 12.5"></polygon>
                        <polygon id="Path" points="7.5 3.33325 7.5 7.5 -7.10542736e-15 7.5 -7.10542736e-15 12.5 1.6667 12.5 1.6667 9.16675 9.1667 9.16675 9.1667 3.33325"></polygon>
                    </g>
                </g>
            </g>
        </g>
    </g>
</svg>